<?xml version="1.0" encoding="UTF-8"?>
<!DOCTYPE svg PUBLIC "-//W3C//DTD SVG 1.1//EN" "http://www.w3.org/Graphics/SVG/1.1/DTD/svg11.dtd">
<svg version="1.1" xmlns="http://www.w3.org/2000/svg" xmlns:xlink="http://www.w3.org/1999/xlink" x="0" y="0" width="468" height="468" viewBox="0, 0, 468, 468">
  <g id="Layer_1" transform="translate(-0, -0)">
    <path d="M288,0 L288,36 L288,36 L288,72 L288,72 L288,36 L360,36 L360,72 L396,72 L396,108 L432,108 L432,180 L468,180 L468,288 L360,288 L360,288 L432,288 L432,360 L396,360 L396,396 L360,396 L360,432 L288,432 L288,396 L288,396 L288,468 L180,468 L180,432 L108,432 L108,396 L72,396 L72,360 L36,360 L36,288 L108,288 L108,288 L0,288 L0,180 L36,180 L36,108 L108,108 L108,108 L72,108 L72,72 L108,72 L108,36 L180,36 L180,0 L288,0 z M216,360 L180,360 L180,396 L216,396 L216,360 z M360,216 L252,216 L252,288 L216,288 L216,360 L252,360 L252,324 L288,324 L288,288 L324,288 L324,252 L360,252 L360,216 z M252,108 L216,108 L216,144 L180,144 L180,180 L144,180 L144,216 L108,216 L108,252 L216,252 L216,180 L252,180 L252,108 z M288,72 L252,72 L252,108 L288,108 L288,72 z" fill="#00CCFF"/>
  </g>
</svg>
